<?xml version="1.0" standalone="no"?><!-- Generator: Gravit.io --><svg xmlns="http://www.w3.org/2000/svg" xmlns:xlink="http://www.w3.org/1999/xlink" style="isolation:isolate" viewBox="1759.964 14.991 30.045 30.045" width="30.045" height="30.045"><g><path d=" M 1787.714 15.902 C 1786.963 15.505 1786.224 15.233 1785.485 15 L 1784.69 15.854 L 1789.206 18.418 L 1790 17.564 C 1789.225 16.819 1788.465 16.299 1787.714 15.902 Z  M 1784.179 16.403 L 1783.385 17.257 L 1787.901 19.821 L 1788.695 18.967 L 1784.179 16.403 Z  M 1782.807 17.879 L 1772.089 29.403 L 1774.543 30.026 L 1784.891 19.059 L 1782.807 17.879 Z  M 1785.332 19.335 L 1775.041 30.28 L 1776.433 31.989 L 1787.322 20.443 L 1785.332 19.335 Z  M 1771.814 29.897 L 1770.649 34.499 L 1775.796 32.281 L 1774.335 30.578 L 1771.814 29.897 Z " fill="rgb(255,255,255)" vector-effect="non-scaling-stroke" stroke-width="0.018" stroke="rgb(255,255,255)" stroke-opacity="100" stroke-linejoin="miter" stroke-linecap="butt" stroke-miterlimit="4"/><path d=" M 1764.502 16.467 C 1762.012 16.467 1760 18.039 1760 19.984 L 1760 41.498 C 1760 43.443 1762.012 45 1764.502 45 L 1782.897 45 C 1785.387 45 1787.399 43.443 1787.399 41.498 L 1787.399 24.664 L 1784.656 27.563 L 1784.656 40.682 C 1784.656 41.881 1783.427 42.856 1781.892 42.856 L 1765.507 42.856 C 1763.973 42.856 1762.744 41.881 1762.744 40.682 L 1762.744 20.784 C 1762.744 19.585 1763.973 18.625 1765.507 18.625 L 1778.57 18.625 L 1780.327 16.466 L 1764.502 16.467 Z " fill="rgb(255,255,255)" vector-effect="non-scaling-stroke" stroke-width="0.018" stroke="rgb(255,255,255)" stroke-opacity="100" stroke-linejoin="miter" stroke-linecap="butt" stroke-miterlimit="4"/></g></svg>