<?xml version="1.0" standalone="no"?><!-- Generator: Gravit.io --><svg xmlns="http://www.w3.org/2000/svg" xmlns:xlink="http://www.w3.org/1999/xlink" style="isolation:isolate" viewBox="1824.482 17.482 27.037 27.037" width="27.037" height="27.037"><g><path d=" M 1826.142 18 L 1849.857 18 C 1850.49 18 1851 18.509 1851 19.143 L 1851 42.857 C 1851 43.491 1850.49 44 1849.857 44 L 1826.142 44 C 1825.509 44 1825 43.491 1825 42.857 L 1825 19.143 C 1825 18.509 1825.509 18 1826.143 18 L 1826.142 18 Z " fill="none" vector-effect="non-scaling-stroke" stroke-width="1.037" stroke="rgb(255,255,255)" stroke-opacity="100" stroke-linejoin="round" stroke-linecap="round" stroke-miterlimit="4"/><path d=" M 1835.623 28.623 L 1835.623 23.273 C 1835.623 22.525 1835.828 21.917 1836.237 21.448 C 1836.647 20.969 1837.231 20.729 1837.991 20.729 C 1838.751 20.729 1839.336 20.969 1839.745 21.448 C 1840.167 21.917 1840.377 22.525 1840.377 23.273 L 1840.377 28.623 L 1845.657 28.623 C 1846.428 28.623 1847.036 28.833 1847.481 29.255 C 1847.937 29.664 1848.165 30.242 1848.165 30.991 C 1848.165 31.751 1847.937 32.342 1847.481 32.763 C 1847.036 33.184 1846.428 33.394 1845.657 33.394 L 1840.377 33.394 L 1840.377 38.727 C 1840.377 39.488 1840.167 40.101 1839.745 40.569 C 1839.324 41.036 1838.739 41.271 1837.991 41.271 C 1837.242 41.271 1836.658 41.036 1836.237 40.569 C 1835.828 40.101 1835.623 39.488 1835.623 38.727 L 1835.623 33.394 L 1830.343 33.394 C 1829.595 33.394 1828.987 33.167 1828.519 32.711 C 1828.063 32.242 1827.835 31.67 1827.835 30.991 C 1827.835 30.242 1828.057 29.664 1828.501 29.255 C 1828.957 28.833 1829.572 28.623 1830.343 28.623 L 1835.623 28.623 Z " fill="rgb(255,255,255)"/></g></svg>