<?xml version="1.0" standalone="no"?><!-- Generator: Gravit.io --><svg xmlns="http://www.w3.org/2000/svg" xmlns:xlink="http://www.w3.org/1999/xlink" style="isolation:isolate" viewBox="1696 19 30 30" width="30" height="30"><g><path d=" M 1723.918 19 L 1698.126 19 C 1696.924 19 1696 20.006 1696 21.204 L 1696 38.984 C 1696 40.23 1696.971 41.188 1698.126 41.188 L 1702.425 41.188 L 1702.425 49 L 1709.913 41.188 L 1723.872 41.188 C 1725.074 41.188 1725.998 40.182 1725.998 38.984 L 1725.998 21.204 C 1726.045 19.958 1725.074 19 1723.918 19 Z  M 1723.918 38.984 L 1708.896 38.984 L 1704.597 43.441 L 1704.597 38.984 L 1698.126 38.984 L 1698.126 21.204 L 1723.872 21.204 L 1723.872 38.984 L 1723.918 38.984 Z " fill="rgb(255,255,255)"/></g></svg>